<svg width="20" height="20" viewBox="0 0 20 20" fill="none" xmlns="http://www.w3.org/2000/svg">
<path fill-rule="evenodd" clip-rule="evenodd" d="M2.5 4.16667C2.5 3.2462 3.2462 2.5 4.16667 2.5H15.8333C16.7538 2.5 17.5 3.24621 17.5 4.16667V5.83333C17.5 6.75379 16.7538 7.5 15.8333 7.5H4.16667C3.2462 7.5 2.5 6.7538 2.5 5.83333V4.16667ZM15.8333 4.16667H4.16667V5.83333H15.8333V4.16667Z" fill="#333333"/>
<path fill-rule="evenodd" clip-rule="evenodd" d="M2.5 10.8334C2.5 9.91285 3.24621 9.16669 4.16667 9.16669H7.5C8.4205 9.16669 9.16667 9.91285 9.16667 10.8334V15.8334C9.16667 16.7539 8.4205 17.5 7.5 17.5H4.16667C3.24621 17.5 2.5 16.7539 2.5 15.8334V10.8334ZM7.5 10.8334H4.16667V15.8334H7.5V10.8334Z" fill="#333333"/>
<path fill-rule="evenodd" clip-rule="evenodd" d="M10.8335 10C10.8335 9.53977 11.2066 9.16669 11.6668 9.16669H16.6668C17.1271 9.16669 17.5002 9.53977 17.5002 10C17.5002 10.4603 17.1271 10.8334 16.6668 10.8334H11.6668C11.2066 10.8334 10.8335 10.4603 10.8335 10Z" fill="#333333"/>
<path fill-rule="evenodd" clip-rule="evenodd" d="M10.8335 13.3333C10.8335 12.8731 11.2066 12.5 11.6668 12.5H16.6668C17.1271 12.5 17.5002 12.8731 17.5002 13.3333C17.5002 13.7936 17.1271 14.1667 16.6668 14.1667H11.6668C11.2066 14.1667 10.8335 13.7936 10.8335 13.3333Z" fill="#333333"/>
<path fill-rule="evenodd" clip-rule="evenodd" d="M10.8335 16.6666C10.8335 16.2064 11.2066 15.8333 11.6668 15.8333H16.6668C17.1271 15.8333 17.5002 16.2064 17.5002 16.6666C17.5002 17.1269 17.1271 17.5 16.6668 17.5H11.6668C11.2066 17.5 10.8335 17.1269 10.8335 16.6666Z" fill="#333333"/>
</svg>
