<svg width="24" height="24" viewBox="0 0 24 24" fill="none" xmlns="http://www.w3.org/2000/svg">
<path d="M5.30229 16.1862C5.13682 16.1861 4.97509 16.1369 4.83755 16.0449C4.70001 15.9529 4.59281 15.8222 4.52951 15.6693C4.4662 15.5164 4.44962 15.3482 4.48187 15.1859C4.51411 15.0236 4.59373 14.8745 4.71067 14.7574L9.17578 10.2923C9.31257 10.1555 9.49252 10.0703 9.68503 10.0511C9.87755 10.032 10.0707 10.0801 10.2318 10.1874L13.0046 12.0393L18.106 6.94345C18.2647 6.79556 18.4746 6.71505 18.6915 6.71888C18.9084 6.72271 19.1154 6.81057 19.2688 6.96396C19.4221 7.11735 19.51 7.3243 19.5138 7.54119C19.5177 7.75808 19.4372 7.968 19.2893 8.1267L13.7079 13.7081C13.571 13.8447 13.391 13.9298 13.1986 13.9489C13.0061 13.968 12.813 13.92 12.6519 13.813L9.87904 11.9611L5.89392 15.9407C5.81648 16.0187 5.7243 16.0806 5.62274 16.1228C5.52118 16.1649 5.41226 16.1865 5.30229 16.1862V16.1862Z" fill="black"/>
<path d="M18.6977 24H5.30233C3.89661 23.9982 2.54897 23.439 1.55497 22.445C0.560978 21.451 0.00177229 20.1034 0 18.6977V5.30233C0.00177229 3.89661 0.560978 2.54897 1.55497 1.55497C2.54897 0.560978 3.89661 0.00177229 5.30233 0H18.6977C20.1034 0.00177229 21.451 0.560978 22.445 1.55497C23.439 2.54897 23.9982 3.89661 24 5.30233V18.6977C23.9982 20.1034 23.439 21.451 22.445 22.445C21.451 23.439 20.1034 23.9982 18.6977 24V24ZM5.30233 1.67442C4.34051 1.6756 3.41842 2.0582 2.73831 2.73831C2.0582 3.41842 1.6756 4.34051 1.67442 5.30233V18.6977C1.6756 19.6595 2.0582 20.5816 2.73831 21.2617C3.41842 21.9418 4.34051 22.3244 5.30233 22.3256H18.6977C19.6595 22.3244 20.5816 21.9418 21.2617 21.2617C21.9418 20.5816 22.3244 19.6595 22.3256 18.6977V5.30233C22.3244 4.34051 21.9418 3.41842 21.2617 2.73831C20.5816 2.0582 19.6595 1.6756 18.6977 1.67442H5.30233Z" fill="black"/>
<path d="M18.6978 11.7205C18.4757 11.7205 18.2628 11.6323 18.1058 11.4753C17.9488 11.3183 17.8606 11.1054 17.8606 10.8833V8.37168H15.3489C15.1269 8.37168 14.9139 8.28348 14.7569 8.12647C14.5999 7.96946 14.5117 7.75652 14.5117 7.53447C14.5117 7.31243 14.5999 7.09949 14.7569 6.94248C14.9139 6.78547 15.1269 6.69727 15.3489 6.69727H18.6978C18.9198 6.69727 19.1328 6.78547 19.2898 6.94248C19.4468 7.09949 19.535 7.31243 19.535 7.53447V10.8833C19.535 11.1054 19.4468 11.3183 19.2898 11.4753C19.1328 11.6323 18.9198 11.7205 18.6978 11.7205Z" fill="black"/>
</svg>