<svg width="20" height="20" viewBox="0 0 20 20" fill="none" xmlns="http://www.w3.org/2000/svg">
<path fill-rule="evenodd" clip-rule="evenodd" d="M10.865 3.93749L7.53171 15.6042C7.40588 16.0467 7.66255 16.5083 8.10421 16.635C8.54671 16.7608 9.00838 16.5042 9.13505 16.0625L12.4684 4.39583C12.5942 3.95333 12.3375 3.49166 11.8959 3.365C11.4534 3.23916 10.9917 3.49583 10.865 3.93749ZM3.67838 9.99999L6.42254 12.7442C6.74755 13.0692 6.74755 13.5975 6.42254 13.9225C6.09755 14.2475 5.56921 14.2475 5.24421 13.9225L1.91088 10.5892C1.58505 10.2642 1.58505 9.73583 1.91088 9.41083L5.24421 6.0775C5.56921 5.7525 6.09755 5.7525 6.42254 6.0775C6.74755 6.4025 6.74755 6.93083 6.42254 7.25583L3.67838 9.99999ZM16.3217 9.99999L13.5775 7.25583C13.2525 6.93083 13.2525 6.4025 13.5775 6.0775C13.9025 5.7525 14.4309 5.7525 14.7559 6.0775L18.0892 9.41083C18.415 9.73583 18.415 10.2642 18.0892 10.5892L14.7559 13.9225C14.4309 14.2475 13.9025 14.2475 13.5775 13.9225C13.2525 13.5975 13.2525 13.0692 13.5775 12.7442L16.3217 9.99999Z" fill="#333333"/>
</svg>
