<svg width="24" height="24" viewBox="0 0 24 24" fill="none" xmlns="http://www.w3.org/2000/svg">
<path d="M15.0676 22.9056H14.9588C14.6104 22.8858 14.2789 22.7493 14.0176 22.5179C13.7563 22.2866 13.5806 21.974 13.5188 21.6306L11.7113 12.1918L2.27631 10.3843C1.9349 10.3191 1.62477 10.1425 1.39445 9.88215C1.16413 9.62183 1.02664 9.29248 1.00349 8.94566C0.98034 8.59885 1.07284 8.25415 1.26652 7.96552C1.46019 7.67689 1.7441 7.46063 2.07381 7.35059L20.8088 1.08809C21.0886 0.990379 21.3902 0.97357 21.6791 1.03959C21.9679 1.10561 22.2323 1.25178 22.4418 1.46131C22.6514 1.67083 22.7975 1.93522 22.8636 2.22409C22.9296 2.51296 22.9128 2.81459 22.8151 3.09434L16.5676 21.8443C16.463 22.1578 16.2612 22.4298 15.9914 22.6207C15.7216 22.8116 15.398 22.9114 15.0676 22.9056ZM21.1651 2.17184L2.41506 8.41559C2.3218 8.44774 2.24169 8.50964 2.18705 8.59178C2.13242 8.67392 2.10628 8.77173 2.11268 8.87017C2.11907 8.96861 2.15763 9.06223 2.22243 9.13661C2.28723 9.21099 2.37468 9.26201 2.47131 9.28184L12.2813 11.1568C12.3924 11.1766 12.4948 11.23 12.5746 11.3098C12.6544 11.3896 12.7078 11.492 12.7276 11.6031L14.6026 21.4131C14.6224 21.5097 14.6734 21.5972 14.7478 21.662C14.8222 21.7268 14.9158 21.7653 15.0142 21.7717C15.1127 21.7781 15.2105 21.752 15.2926 21.6973C15.3748 21.6427 15.4367 21.5626 15.4688 21.4693L21.7126 2.71934C21.7319 2.64364 21.7313 2.56422 21.7106 2.48887C21.69 2.41352 21.65 2.34484 21.5948 2.28959C21.5396 2.23435 21.4709 2.19444 21.3955 2.17379C21.3202 2.15314 21.2408 2.15247 21.1651 2.17184Z" fill="#33D5D5" stroke="#00CBCA" stroke-width="0.5"/>
</svg>