<svg width="24" height="24" viewBox="0 0 24 24" fill="none" xmlns="http://www.w3.org/2000/svg">
<g clip-path="url(#clip0_213_818)">
<path d="M12 7C10.9767 7 2 6.93 2 4.5C2 2.07 10.9767 2 12 2C13.0233 2 22 2.07 22 4.5C22 6.93 13.0233 7 12 7ZM3.32333 4.5C3.93333 4.97333 6.86083 5.75 12 5.75C17.1392 5.75 20.0667 4.97333 20.6767 4.5C20.0667 4.02667 17.1392 3.25 12 3.25C6.86083 3.25 3.93333 4.02667 3.32333 4.5ZM20.7725 4.59667H20.7808H20.7725Z" fill="black"/>
<path d="M12 12C10.9767 12 2 11.93 2 9.5C2 9.155 2.28 8.875 2.625 8.875C2.94583 8.875 3.21 9.11667 3.24583 9.42833C3.63083 9.88917 6.58917 10.75 12 10.75C17.4108 10.75 20.3692 9.88917 20.7542 9.42833C20.79 9.11667 21.0542 8.875 21.375 8.875C21.72 8.875 22 9.155 22 9.5C22 11.93 13.0233 12 12 12ZM20.75 9.49917C20.75 9.5 20.75 9.5 20.75 9.49917V9.49917ZM3.25 9.49917C3.25 9.5 3.25 9.5 3.25 9.49917V9.49917Z" fill="black"/>
<path d="M12 17C10.9767 17 2 16.93 2 14.5C2 14.155 2.28 13.875 2.625 13.875C2.94583 13.875 3.21 14.1167 3.24583 14.4283C3.63083 14.8892 6.58917 15.75 12 15.75C17.4108 15.75 20.3692 14.8892 20.7542 14.4283C20.79 14.1167 21.0542 13.875 21.375 13.875C21.72 13.875 22 14.155 22 14.5C22 16.93 13.0233 17 12 17ZM20.75 14.4992C20.75 14.5 20.75 14.5 20.75 14.4992V14.4992ZM3.25 14.4992C3.25 14.5 3.25 14.5 3.25 14.4992V14.4992Z" fill="black"/>
<path d="M12 22C10.9767 22 2 21.93 2 19.5V4.5C2 4.155 2.28 3.875 2.625 3.875C2.97 3.875 3.25 4.155 3.25 4.5V19.4325C3.65083 19.8958 6.60833 20.75 12 20.75C17.3917 20.75 20.3492 19.8958 20.75 19.4325V4.5C20.75 4.155 21.03 3.875 21.375 3.875C21.72 3.875 22 4.155 22 4.5V19.5C22 21.93 13.0233 22 12 22Z" fill="black"/>
<path d="M6.16634 14.4997C6.62658 14.4997 6.99967 14.1266 6.99967 13.6663C6.99967 13.2061 6.62658 12.833 6.16634 12.833C5.7061 12.833 5.33301 13.2061 5.33301 13.6663C5.33301 14.1266 5.7061 14.4997 6.16634 14.4997Z" fill="black"/>
<path d="M6.16634 9.49967C6.62658 9.49967 6.99967 9.12658 6.99967 8.66634C6.99967 8.2061 6.62658 7.83301 6.16634 7.83301C5.7061 7.83301 5.33301 8.2061 5.33301 8.66634C5.33301 9.12658 5.7061 9.49967 6.16634 9.49967Z" fill="black"/>
<path d="M6.16634 19.4997C6.62658 19.4997 6.99967 19.1266 6.99967 18.6663C6.99967 18.2061 6.62658 17.833 6.16634 17.833C5.7061 17.833 5.33301 18.2061 5.33301 18.6663C5.33301 19.1266 5.7061 19.4997 6.16634 19.4997Z" fill="black"/>
</g>
<defs>
<clipPath id="clip0_213_818">
<rect width="20" height="20" fill="white" transform="translate(2 2)"/>
</clipPath>
</defs>
</svg>