<svg width="23" height="24" viewBox="0 0 23 18" fill="none" xmlns="http://www.w3.org/2000/svg">
<path d="M2.76675 1.45L2.76669 1.45C2.41761 1.45041 2.08294 1.58927 1.83611 1.83611C1.58927 2.08294 1.45041 2.41761 1.45 2.76669V2.76675V3.3405V3.3678L1.47296 3.38256L11.223 9.65031L11.25 9.66769L11.277 9.65031L21.027 3.38256L21.05 3.3678V3.3405V2.76675V2.76669C21.0496 2.41761 20.9107 2.08294 20.6639 1.83611C20.4171 1.58927 20.0824 1.45041 19.7333 1.45H19.7332L2.76675 1.45ZM19.7332 16.55H19.7333C20.0824 16.5496 20.4171 16.4107 20.6639 16.1639C20.9107 15.9171 21.0496 15.5824 21.05 15.2333V15.2333V5.124V5.03242L20.973 5.08194L11.6287 11.0887L11.6287 11.0887C11.5158 11.1614 11.3843 11.2 11.25 11.2C11.1157 11.2 10.9842 11.1614 10.8713 11.0887L10.8713 11.0887L1.52704 5.08194L1.45 5.03242V5.124L1.45 15.2333L1.45 15.2333C1.45041 15.5824 1.58927 15.9171 1.83611 16.1639C2.08294 16.4107 2.41761 16.5496 2.76669 16.55H2.76675H19.7332ZM0.846595 0.846595C1.35593 0.337264 2.0465 0.0507797 2.7668 0.05L19.7332 0.05C20.4535 0.050787 21.1441 0.337271 21.6534 0.846595C22.1627 1.35593 22.4492 2.0465 22.45 2.7668V15.2332C22.4492 15.9535 22.1627 16.6441 21.6534 17.1534C21.1441 17.6627 20.4535 17.9492 19.7332 17.95H2.7668C2.0465 17.9492 1.35593 17.6627 0.846595 17.1534C0.337264 16.6441 0.0507797 15.9535 0.05 15.2332L0.05 2.76678C0.050787 2.04648 0.33727 1.35592 0.846595 0.846595Z" fill="black" stroke="#333333" stroke-width="0.1"/>
</svg>