<svg width="24" height="24" viewBox="0 0 24 24" fill="none" xmlns="http://www.w3.org/2000/svg">
<g clip-path="url(#clip0_213_829)">
<path d="M21.24 10.5891C20.6567 10.0047 19.7122 10.0045 19.1287 10.5891C15.8478 13.8753 21.5816 8.13213 13.3203 16.4069C10.6425 19.0889 6.23006 17.3637 6.31953 13.6898C6.34675 12.5725 6.80851 11.5097 7.61981 10.697L13.4281 4.87931C14.0115 4.29503 14.0117 3.34897 13.4281 2.76454L11.1057 0.438341C10.5222 -0.146089 9.57788 -0.146139 8.99439 0.438341C8.16622 1.26791 3.91459 5.52639 3.01714 6.42529C1.07386 8.37173 0.00234256 10.9597 3.6534e-06 13.7123C-0.0046244 19.2365 4.38829 23.9947 10.2635 24C13.089 24 15.6979 22.9072 17.643 20.959L23.5623 15.03C24.1458 14.4458 24.146 13.4997 23.5623 12.9153L21.24 10.5891ZM10.05 1.49575L12.3725 3.82195L9.46352 6.73568L7.14108 4.40947L10.05 1.49575ZM16.5874 19.9016C13.1515 23.343 7.48714 23.3917 4.06139 19.9481C0.639471 16.5084 0.644597 10.9165 4.07279 7.48265L6.08539 5.46678L8.40783 7.79298L6.56412 9.63968C4.31902 11.8883 4.22939 15.464 6.39517 17.6333C8.54891 19.7906 12.129 19.7146 14.3759 17.4642L16.2196 15.6175L18.5421 17.9437L16.5874 19.9016ZM19.5978 16.8864L17.2754 14.5602L20.1844 11.6464L22.5068 13.9726L19.5978 16.8864Z" fill="black"/>
</g>
<defs>
<clipPath id="clip0_213_829">
<rect width="24" height="24" fill="white"/>
</clipPath>
</defs>
</svg>