<svg xmlns="http://www.w3.org/2000/svg" version="1.1" width="64px" height="64px" style="shape-rendering:geometricPrecision; text-rendering:geometricPrecision; image-rendering:optimizeQuality; fill-rule:evenodd; clip-rule:evenodd" xmlns:xlink="http://www.w3.org/1999/xlink">
<g><path style="opacity:0.891" fill="#000000" d="M 44.5,-0.5 C 47.5,-0.5 50.5,-0.5 53.5,-0.5C 58.2517,1.91654 61.5851,5.58321 63.5,10.5C 63.5,13.1667 63.5,15.8333 63.5,18.5C 60.5754,25.2788 56.5754,31.4455 51.5,37C 49.8333,37.6667 48.1667,37.6667 46.5,37C 40.0037,30.8413 36.0037,23.3413 34.5,14.5C 34.6975,7.31959 38.0309,2.31959 44.5,-0.5 Z M 47.5,9.5 C 52.3652,9.68447 54.0319,12.0178 52.5,16.5C 48.7512,19.4182 46.0846,18.5849 44.5,14C 44.9567,12.0598 45.9567,10.5598 47.5,9.5 Z"/></g>
<g><path style="opacity:0.719" fill="#000000" d="M 40.5,63.5 C 32.1667,63.5 23.8333,63.5 15.5,63.5C 15.5,62.1667 15.5,60.8333 15.5,59.5C 23.1955,59.8308 30.8622,59.4975 38.5,58.5C 34.5264,52.6928 30.3597,47.0261 26,41.5C 25.0561,38.6529 25.5561,36.1529 27.5,34C 31.8206,33.501 36.1539,33.3343 40.5,33.5C 40.5,34.8333 40.5,36.1667 40.5,37.5C 36.774,37.1774 33.1073,37.5108 29.5,38.5C 33.4736,44.3072 37.6403,49.9739 42,55.5C 42.8907,58.4976 42.3907,61.1643 40.5,63.5 Z"/></g>
<g><path style="opacity:0.841" fill="#000000" d="M 11.5,63.5 C 9.83333,63.5 8.16667,63.5 6.5,63.5C 4.09897,59.4577 1.76563,55.4577 -0.5,51.5C -0.5,49.5 -0.5,47.5 -0.5,45.5C 3.69357,38.7432 9.19357,37.4099 16,41.5C 18.174,44.5464 18.8407,47.8798 18,51.5C 16.0897,55.655 13.923,59.655 11.5,63.5 Z M 7.5,46.5 C 10.1662,46.0658 11.3329,47.0658 11,49.5C 7.40344,51.0661 6.23678,50.0661 7.5,46.5 Z"/></g>
</svg>
