<svg width="24" height="24" viewBox="0 0 24 24" fill="none" xmlns="http://www.w3.org/2000/svg">
<path d="M5.43902 2H4.56098C3.14885 2 2 3.22664 2 4.73438V19.2656C2 20.7734 3.14885 22 4.56098 22H5.43902C6.85115 22 8 20.7734 8 19.2656V4.73438C8 3.22664 6.85115 2 5.43902 2ZM6.53659 19.2656C6.53659 19.9118 6.04422 20.4375 5.43902 20.4375H4.56098C3.95578 20.4375 3.46341 19.9118 3.46341 19.2656V4.73438C3.46341 4.0882 3.95578 3.5625 4.56098 3.5625H5.43902C6.04422 3.5625 6.53659 4.0882 6.53659 4.73438V19.2656Z" fill="black"/>
<path d="M19.2549 2H12.7451C11.2315 2 10 3.14885 10 4.56098V5.43902C10 6.85115 11.2315 8 12.7451 8H19.2549C20.7685 8 22 6.85115 22 5.43902V4.56098C22 3.14885 20.7685 2 19.2549 2ZM20.4314 5.43902C20.4314 6.04422 19.9036 6.53659 19.2549 6.53659H12.7451C12.0964 6.53659 11.5686 6.04422 11.5686 5.43902V4.56098C11.5686 3.95578 12.0964 3.46341 12.7451 3.46341H19.2549C19.9036 3.46341 20.4314 3.95578 20.4314 4.56098V5.43902Z" fill="black"/>
<path d="M19.2549 10H12.7451C11.2315 10 10 11.2355 10 12.7541V19.2459C10 20.7645 11.2315 22 12.7451 22H19.2549C20.7685 22 22 20.7645 22 19.2459C22 18.8113 21.6489 18.459 21.2157 18.459C20.7825 18.459 20.4314 18.8113 20.4314 19.2459C20.4314 19.8967 19.9036 20.4262 19.2549 20.4262H12.7451C12.0964 20.4262 11.5686 19.8967 11.5686 19.2459V12.7541C11.5686 12.1033 12.0964 11.5738 12.7451 11.5738H19.2549C19.9036 11.5738 20.4314 12.1033 20.4314 12.7541V15.3115C20.4314 15.7461 20.7825 16.0984 21.2157 16.0984C21.6489 16.0984 22 15.7461 22 15.3115V12.7541C22 11.2355 20.7685 10 19.2549 10Z" fill="black"/>
</svg>