<svg width="24" height="24" viewBox="0 0 24 24" fill="none" xmlns="http://www.w3.org/2000/svg">
<path d="M12 19.5469C9.84008 19.5469 7.68168 18.9076 5.53686 17.6304C4.86669 17.2324 4.45312 16.489 4.45312 15.6914V11.2539C4.45312 10.8378 4.79123 10.5 5.20781 10.5C5.6244 10.5 5.9625 10.8378 5.9625 11.2539V15.6914C5.9625 15.9568 6.09834 16.2101 6.30815 16.3352C10.1389 18.6166 13.8626 18.6166 17.6903 16.3352C17.9017 16.2101 18.0375 15.9568 18.0375 15.6914V11.2539C18.0375 10.8378 18.3756 10.5 18.7922 10.5C19.2088 10.5 19.5469 10.8378 19.5469 11.2539V15.6914C19.5469 16.489 19.1333 17.2324 18.4631 17.6304C16.3183 18.9076 14.1599 19.5469 12 19.5469Z" fill="black"/>
<path d="M12 15.0469C11.893 15.0469 11.7845 15.0242 11.6836 14.9773L1.89007 10.4374C1.62338 10.3133 1.45312 10.0455 1.45312 9.75038C1.45312 9.45529 1.62338 9.18744 1.89007 9.06335L11.6836 4.52349C11.887 4.42967 12.113 4.42967 12.3164 4.52349L22.1099 9.06335C22.3766 9.18744 22.5469 9.45529 22.5469 9.75038C22.5469 10.0455 22.3766 10.3133 22.1099 10.4374L12.3164 14.9773C12.2155 15.0242 12.107 15.0469 12 15.0469ZM4.00396 9.75038L12 13.4564L19.996 9.75038L12 6.04434L4.00396 9.75038Z" fill="black"/>
</svg>