<svg width="24" height="24" viewBox="0 0 24 24" fill="none" xmlns="http://www.w3.org/2000/svg">
<path d="M12.9086 9.27228C13.1498 9.27228 13.381 9.1765 13.5515 9.00602C13.722 8.83553 13.8177 8.6043 13.8177 8.36319C13.8177 8.12209 13.722 7.89086 13.5515 7.72037C13.381 7.54988 13.1498 7.4541 12.9086 7.4541H10.1814C9.4583 7.4549 8.76507 7.74249 8.25378 8.25378C7.74249 8.76507 7.4549 9.4583 7.4541 10.1814V12.9086C7.4541 13.1498 7.54988 13.381 7.72037 13.5515C7.89086 13.722 8.12209 13.8177 8.36319 13.8177C8.6043 13.8177 8.83553 13.722 9.00602 13.5515C9.1765 13.381 9.27228 13.1498 9.27228 12.9086V10.1814C9.2726 9.94036 9.36848 9.70932 9.5389 9.5389C9.70932 9.36848 9.94036 9.2726 10.1814 9.27228H12.9086Z" fill="black"/>
<path d="M15.6362 10.1816C15.3951 10.1816 15.1638 10.2774 14.9934 10.4479C14.8229 10.6184 14.7271 10.8496 14.7271 11.0907V13.818C14.7268 14.059 14.6309 14.2901 14.4605 14.4605C14.2901 14.6309 14.059 14.7268 13.818 14.7271H11.0907C10.8496 14.7271 10.6184 14.8229 10.4479 14.9934C10.2774 15.1638 10.1816 15.3951 10.1816 15.6362C10.1816 15.8773 10.2774 16.1085 10.4479 16.279C10.6184 16.4495 10.8496 16.5453 11.0907 16.5453H13.818C14.5411 16.5445 15.2343 16.2569 15.7456 15.7456C16.2569 15.2343 16.5445 14.5411 16.5453 13.818V11.0907C16.5453 10.8496 16.4495 10.6184 16.279 10.4479C16.1085 10.2774 15.8773 10.1816 15.6362 10.1816Z" fill="black"/>
<path d="M19.2727 7.45455H16.5455V4.72727C16.5447 4.0042 16.2571 3.31097 15.7458 2.79968C15.2345 2.28839 14.5413 2.00079 13.8182 2H4.72727C4.0042 2.00079 3.31097 2.28839 2.79968 2.79968C2.28839 3.31097 2.00079 4.0042 2 4.72727V13.8182C2.00079 14.5413 2.28839 15.2345 2.79968 15.7458C3.31097 16.2571 4.0042 16.5447 4.72727 16.5455H7.45455V19.2727C7.45534 19.9958 7.74293 20.689 8.25422 21.2003C8.76551 21.7116 9.45874 21.9992 10.1818 22H19.2727C19.9958 21.9992 20.689 21.7116 21.2003 21.2003C21.7116 20.689 21.9992 19.9958 22 19.2727V10.1818C21.9992 9.45874 21.7116 8.76551 21.2003 8.25422C20.689 7.74293 19.9958 7.45534 19.2727 7.45455ZM20.1818 19.2727C20.1815 19.5137 20.0856 19.7448 19.9152 19.9152C19.7448 20.0856 19.5137 20.1815 19.2727 20.1818H10.1818C9.94081 20.1815 9.70976 20.0856 9.53934 19.9152C9.36892 19.7448 9.27304 19.5137 9.27273 19.2727V15.6364C9.27273 15.3953 9.17695 15.164 9.00646 14.9935C8.83597 14.8231 8.60474 14.7273 8.36364 14.7273H4.72727C4.48626 14.727 4.25521 14.6311 4.08479 14.4607C3.91437 14.2902 3.81849 14.0592 3.81818 13.8182V4.72727C3.81849 4.48626 3.91437 4.25521 4.08479 4.08479C4.25521 3.91437 4.48626 3.81849 4.72727 3.81818H13.8182C14.0592 3.81849 14.2902 3.91437 14.4607 4.08479C14.6311 4.25521 14.727 4.48626 14.7273 4.72727V8.36364C14.7273 8.60474 14.8231 8.83597 14.9935 9.00646C15.164 9.17695 15.3953 9.27273 15.6364 9.27273H19.2727C19.5137 9.27304 19.7448 9.36892 19.9152 9.53934C20.0856 9.70976 20.1815 9.94081 20.1818 10.1818V19.2727Z" fill="black"/>
</svg>