<?xml version="1.0" standalone="no"?>
<!DOCTYPE svg PUBLIC "-//W3C//DTD SVG 20010904//EN"
 "http://www.w3.org/TR/2001/REC-SVG-20010904/DTD/svg10.dtd">
<svg version="1.0" xmlns="http://www.w3.org/2000/svg"
 width="43.000000pt" height="45.000000pt" viewBox="0 0 43.000000 45.000000"
 preserveAspectRatio="xMidYMid meet">

<g transform="translate(0.000000,45.000000) scale(0.100000,-0.100000)"
fill="#D16CEA" stroke="none">
<path d="M162 439 c-67 -20 -132 -111 -132 -185 0 -12 -7 -38 -15 -57 -20 -48
-19 -56 9 -66 17 -7 25 -20 30 -49 8 -54 25 -66 88 -60 53 6 78 24 78 60 0 25
-13 23 -25 -4 -8 -19 -19 -24 -62 -26 l-52 -3 -7 47 c-5 33 -12 48 -25 51 -23
6 -23 11 -4 56 8 20 15 50 15 67 0 96 109 173 208 148 113 -28 162 -158 96
-253 -16 -23 -20 -155 -4 -155 6 0 10 24 10 54 0 37 8 72 26 111 48 105 16
200 -86 253 -46 23 -93 27 -148 11z"/>
<path d="M155 365 c-53 -44 -65 -58 -65 -75 0 -22 28 -60 44 -60 8 0 19 -7 26
-15 7 -8 22 -15 34 -15 27 0 46 -18 46 -42 0 -10 5 -18 10 -18 6 0 10 13 10
30 0 31 -22 50 -59 50 -27 0 -38 20 -18 35 10 7 17 15 17 19 0 12 -28 6 -40
-8 -18 -22 -42 -8 -38 23 2 19 8 25 23 24 15 -1 24 7 32 27 8 22 18 30 37 30
13 0 28 -5 31 -10 4 -6 22 -17 42 -25 30 -13 34 -18 29 -39 -4 -18 -1 -28 11
-35 14 -8 15 -12 4 -25 -10 -12 -18 -13 -33 -5 -15 8 -17 13 -8 25 7 7 9 22 5
31 -6 17 -7 17 -20 -1 -8 -10 -21 -16 -29 -13 -30 12 -25 -11 10 -41 38 -34
54 -38 85 -22 22 12 25 49 7 83 -6 12 -14 29 -18 37 -4 8 -17 20 -29 26 -13 7
-28 17 -34 23 -20 20 -80 12 -112 -14z"/>
<path d="M197 334 c-14 -14 -7 -25 12 -19 13 4 23 0 30 -12 5 -10 13 -14 17
-10 5 4 3 16 -2 25 -12 18 -45 27 -57 16z"/>
</g>
</svg>
