<svg width="31" height="31" viewBox="0 0 31 31" fill="none" xmlns="http://www.w3.org/2000/svg">
<path d="M24.5413 6.45834H23.2497V3.87501C23.2497 3.53244 23.1136 3.2039 22.8714 2.96166C22.6291 2.71943 22.3006 2.58334 21.958 2.58334C21.6154 2.58334 21.2869 2.71943 21.0447 2.96166C20.8024 3.2039 20.6663 3.53244 20.6663 3.87501V6.45834H10.333V3.87501C10.333 3.53244 10.1969 3.2039 9.95469 2.96166C9.71245 2.71943 9.38391 2.58334 9.04134 2.58334C8.69877 2.58334 8.37023 2.71943 8.128 2.96166C7.88576 3.2039 7.74967 3.53244 7.74967 3.87501V6.45834H6.45801C5.43029 6.45834 4.44467 6.8666 3.71797 7.59331C2.99127 8.32001 2.58301 9.30563 2.58301 10.3333V11.625H28.4163V10.3333C28.4163 9.30563 28.0081 8.32001 27.2814 7.59331C26.5547 6.8666 25.5691 6.45834 24.5413 6.45834Z" fill="#7B68EE"/>
<path d="M2.58301 24.5417C2.58301 25.5694 2.99127 26.555 3.71797 27.2817C4.44467 28.0084 5.43029 28.4167 6.45801 28.4167H24.5413C25.5691 28.4167 26.5547 28.0084 27.2814 27.2817C28.0081 26.555 28.4163 25.5694 28.4163 24.5417V14.2083H2.58301V24.5417Z" fill="#7B68EE"/>
</svg>
