<svg width="32" height="32" viewBox="0 0 32 32" fill="none" xmlns="http://www.w3.org/2000/svg">
<path d="M15.9375 1C7.14937 1 0 7.308 0 15.0625C0 18.3382 1.29638 21.5124 3.65569 24.0282C4.12262 25.9536 3.55588 27.9934 2.14963 29.3996C1.56163 29.9877 1.97744 31 2.8125 31C5.484 31 8.05937 29.9536 9.97281 28.1079C11.8661 28.7835 13.8693 29.125 15.9375 29.125C24.7256 29.125 32 22.817 32 15.0625C32 7.308 24.7256 1 15.9375 1ZM8.5625 17.875C7.01163 17.875 5.75 16.6134 5.75 15.0625C5.75 13.5116 7.01163 12.25 8.5625 12.25C10.1134 12.25 11.375 13.5116 11.375 15.0625C11.375 16.6134 10.1134 17.875 8.5625 17.875ZM16.0625 17.875C14.5116 17.875 13.25 16.6134 13.25 15.0625C13.25 13.5116 14.5116 12.25 16.0625 12.25C17.6134 12.25 18.875 13.5116 18.875 15.0625C18.875 16.6134 17.6134 17.875 16.0625 17.875ZM23.5625 17.875C22.0116 17.875 20.75 16.6134 20.75 15.0625C20.75 13.5116 22.0116 12.25 23.5625 12.25C25.1134 12.25 26.375 13.5116 26.375 15.0625C26.375 16.6134 25.1134 17.875 23.5625 17.875Z" fill="#FFBC01"/>
</svg>
