<svg width="25" height="28" viewBox="0 0 25 28" fill="none" xmlns="http://www.w3.org/2000/svg">
<path d="M15.3241 30.84C15.2127 30.84 15.1013 30.8231 14.9935 30.7922C14.7635 30.7219 14.5802 30.5841 14.4796 30.4069L9.11055 20.6925L2.42976 25.6059C2.16383 25.8028 1.77211 25.8534 1.4343 25.7409C1.10008 25.6284 0.880859 25.3669 0.880859 25.08V1.31999C0.880859 1.03311 1.09649 0.774367 1.4343 0.659052C1.76851 0.546552 2.16023 0.597175 2.42976 0.794052L24.5098 16.9209C24.7757 17.115 24.8691 17.4159 24.7505 17.6831C24.6319 17.9531 24.3229 18.1416 23.9599 18.1669L14.591 18.7969L20.2081 28.3819C20.3087 28.5534 20.3195 28.7531 20.2332 28.9331C20.147 29.1131 19.9781 29.2566 19.7552 29.3353L15.7051 30.7753C15.5829 30.8175 15.4571 30.84 15.3241 30.84Z" fill="#FB5115"/>
</svg>
