<svg width="18" height="18" viewBox="0 0 18 18" fill="none" xmlns="http://www.w3.org/2000/svg">
<path d="M10.5 17.625H3.75C2.475 17.625 1.5 16.65 1.5 15.375V6.375C1.5 5.1 2.475 4.125 3.75 4.125H10.5C11.775 4.125 12.75 5.1 12.75 6.375V15.375C12.75 16.65 11.775 17.625 10.5 17.625ZM3.75 5.625C3.3 5.625 3 5.925 3 6.375V15.375C3 15.825 3.3 16.125 3.75 16.125H10.5C10.95 16.125 11.25 15.825 11.25 15.375V6.375C11.25 5.925 10.95 5.625 10.5 5.625H3.75Z" fill="#7B68EE"/>
<path d="M14.25 13.875H12C11.55 13.875 11.25 13.575 11.25 13.125C11.25 12.675 11.55 12.375 12 12.375H14.25C14.7 12.375 15 12.075 15 11.625V2.625C15 2.175 14.7 1.875 14.25 1.875H7.5C7.05 1.875 6.75 2.175 6.75 2.625V4.875C6.75 5.325 6.45 5.625 6 5.625C5.55 5.625 5.25 5.325 5.25 4.875V2.625C5.25 1.35 6.225 0.374998 7.5 0.374998H14.25C15.525 0.374998 16.5 1.35 16.5 2.625V11.625C16.5 12.9 15.525 13.875 14.25 13.875Z" fill="#7B68EE"/>
</svg>
