<svg width="22" height="22" viewBox="0 0 22 22" fill="none" xmlns="http://www.w3.org/2000/svg">
<path d="M1.93359 3.26562H20.0664C21.1347 3.26562 22 4.13626 22 5.19922V16.8008C22 17.8701 21.1284 18.7344 20.0664 18.7344H1.93359C0.874199 18.7344 0 17.8737 0 16.8008V5.19922C0 4.13815 0.861824 3.26562 1.93359 3.26562ZM2.20438 4.55469C2.59944 4.94764 9.398 11.7104 9.63273 11.9439C9.99797 12.3091 10.4835 12.5102 11 12.5102C11.5165 12.5102 12.002 12.3091 12.3685 11.9427C12.5263 11.7856 19.2499 5.09755 19.7956 4.55469H2.20438ZM20.7109 16.5384V5.4624L15.1406 11.0034L20.7109 16.5384ZM19.7948 17.4453L14.2266 11.9125L13.2788 12.8554C12.6701 13.4641 11.8608 13.7993 11 13.7993C10.1392 13.7993 9.32993 13.4641 8.72244 12.8566L7.77339 11.9125L2.2052 17.4453H19.7948ZM1.28906 16.5384L6.85945 11.0034L1.28906 5.4624V16.5384Z" fill="#B9BEC7" fill-opacity="0.6"/>
</svg>
