<svg width="31" height="31" viewBox="0 0 31 31" fill="none" xmlns="http://www.w3.org/2000/svg">
<path d="M31 10.6786C31 18.5019 15.4996 28.8925 15.4996 28.8925C15.4996 28.8925 0 18.8765 0 10.6786C0 4.7858 3.83819 2.10745 8.57123 2.10745C10.7626 2.10745 12.7558 2.93596 14.269 4.28976L10.3216 10.0203C10.2231 10.1634 10.1867 10.3409 10.221 10.5114C10.2553 10.6816 10.3573 10.8317 10.5037 10.9256L16.3782 14.7006L13.6747 17.9636C13.5387 18.1277 13.4929 18.3484 13.5525 18.5529L15.065 23.7699C15.146 24.0499 15.4023 24.2337 15.6817 24.2337C15.7315 24.2337 15.7826 24.2274 15.833 24.2156C16.1672 24.1353 16.3786 23.8059 16.3137 23.4685L15.395 18.7217L19.2511 14.8465C19.3808 14.7161 19.4483 14.5361 19.4369 14.3532C19.4257 14.1692 19.3361 13.9995 19.1908 13.8863L14.1113 9.9261L19.632 3.29597C19.7442 3.16101 19.7961 2.9856 19.776 2.81126C19.7659 2.72168 19.7362 2.63628 19.6914 2.55973C20.5503 2.26862 21.4691 2.10745 22.4271 2.10745C27.1619 2.10745 31 5.94558 31 10.6786Z" fill="#FD71AF"/>
</svg>
