<svg width="27" height="27" viewBox="0 0 27 27" fill="none" xmlns="http://www.w3.org/2000/svg">
<path d="M13.1714 16.8444C13.1685 16.8444 13.1656 16.8444 13.1627 16.8444C12.6279 16.8396 12.1978 16.4022 12.2026 15.867L12.207 15.3826C12.207 15.355 12.2085 15.3269 12.2114 15.2993C12.3455 13.8902 13.2809 13.0266 14.0331 12.3325C14.2879 12.0971 14.5291 11.8747 14.7345 11.6427C14.9849 11.3603 15.3482 10.782 14.966 10.084C14.5257 9.278 13.4504 9.04986 12.6148 9.24119C11.742 9.44075 11.4204 10.1862 11.3061 10.6125C11.1675 11.1293 10.6362 11.4359 10.1193 11.2978C9.60252 11.1593 9.29591 10.628 9.43396 10.1111C9.82 8.66914 10.8217 7.66406 12.1818 7.35261C14.0123 6.93459 15.8558 7.67423 16.6652 9.154C17.339 10.3862 17.1544 11.8321 16.1832 12.9278C15.9134 13.232 15.6252 13.4984 15.3462 13.7556C14.6512 14.3974 14.2167 14.8265 14.1431 15.446L14.1392 15.8834C14.1353 16.4167 13.7023 16.8444 13.1714 16.8444Z" fill="#333333"/>
<path d="M13.1709 19.7487C12.919 19.7487 12.6671 19.647 12.4879 19.4677C12.3039 19.2885 12.2021 19.0366 12.2021 18.7799C12.2021 18.528 12.3039 18.2762 12.4879 18.097C12.8464 17.7385 13.4954 17.7385 13.8539 18.097C14.0379 18.2762 14.1396 18.528 14.1396 18.7799C14.1396 19.0366 14.0379 19.2837 13.8587 19.4677C13.6746 19.647 13.4276 19.7487 13.1709 19.7487Z" fill="#333333"/>
<path d="M13.4628 26.0924C12.3608 26.0924 11.2686 25.9491 10.216 25.6657C5.68033 24.4456 2.1289 20.6883 1.16838 16.093C0.189458 11.4115 1.99618 6.49027 5.77188 3.55544C7.95447 1.85867 10.7072 0.923828 13.5233 0.923828C15.4729 0.923828 17.409 1.3772 19.1227 2.23406C23.3547 4.35127 26.089 8.77458 26.089 13.5035C26.089 17.3621 24.2682 21.0811 21.2186 23.4516C19.0283 25.1547 16.2736 26.0924 13.4628 26.0924ZM13.5238 2.86133C11.1363 2.86133 8.80552 3.65086 6.9615 5.08509C3.76608 7.56897 2.23643 11.7341 3.06519 15.6963C3.87797 19.5834 6.88255 22.7624 10.7198 23.7946C11.6081 24.0334 12.5313 24.1549 13.4628 24.1549C15.8449 24.1549 18.1772 23.362 20.0299 21.922C22.6112 19.9157 24.152 16.7687 24.152 13.5035C24.152 9.50211 21.8381 5.75886 18.2566 3.96716C16.8103 3.24398 15.1741 2.86133 13.5238 2.86133Z" fill="#333333"/>
</svg>
