<svg width="22" height="24" viewBox="0 0 22 24" fill="none" xmlns="http://www.w3.org/2000/svg">
<path d="M18.5816 15.1781V10.6181C18.5816 7.23097 16.4139 4.27744 13.4293 3.17422C13.4642 3.00001 13.4835 2.82198 13.4835 2.64388C13.4836 1.18454 12.299 0 10.8397 0C9.38036 0 8.19582 1.18454 8.19582 2.64388C8.19582 2.8181 8.21515 2.99225 8.24611 3.15871C7.22034 3.52259 6.27194 4.09935 5.46292 4.88128C3.93777 6.35226 3.09778 8.33031 3.09778 10.4516V15.1781C3.09778 15.3445 2.96229 15.4839 2.79195 15.4839C1.36357 15.4839 0.144187 16.56 0.0125715 17.9304C-0.0609937 18.693 0.190666 19.4516 0.705493 20.0168C1.21644 20.5781 1.94808 20.9033 2.71063 20.9033H7.37904C7.57258 22.6414 9.05132 24.0001 10.8397 24.0001C12.6281 24.0001 14.1068 22.6414 14.3004 20.9033H18.9688C19.7314 20.9033 20.463 20.5781 20.9739 20.0168C21.4849 19.4516 21.7365 18.693 21.6668 17.9304C21.5352 16.56 20.312 15.4839 18.8875 15.4839C18.7171 15.4838 18.5816 15.3483 18.5816 15.1781ZM10.8397 1.54836C11.4435 1.54836 11.9352 2.03998 11.9352 2.64382C11.9352 2.69411 11.9274 2.74059 11.9196 2.79088C11.6564 2.75216 11.3893 2.72508 11.1222 2.71732C10.6615 2.7018 10.2086 2.73283 9.75962 2.79476C9.75187 2.74447 9.74411 2.69799 9.74411 2.6477C9.74424 2.03998 10.2359 1.54836 10.8397 1.54836ZM10.8397 22.4516C9.90682 22.4516 9.12488 21.7857 8.94291 20.9032H12.7364C12.5546 21.7858 11.7726 22.4516 10.8397 22.4516ZM20.1262 18.0774C20.1571 18.4103 20.0526 18.7316 19.832 18.9755C19.6036 19.2194 19.3016 19.3548 18.9688 19.3548H2.71069C2.37777 19.3548 2.07589 19.2193 1.85131 18.9755C1.6268 18.7316 1.52227 18.4103 1.55324 18.0774C1.60741 17.4929 2.15326 17.0323 2.79195 17.0323C3.81391 17.0323 4.64614 16.2 4.64614 15.1781V10.4516C4.64614 8.75612 5.31967 7.17292 6.53905 5.99614C7.7042 4.86971 9.22165 4.25805 10.8397 4.25805C10.9171 4.25805 10.9906 4.25805 11.0681 4.26193C14.3545 4.37803 17.0333 7.23097 17.0333 10.6181V15.1781C17.0333 16.2 17.8655 17.0323 18.8875 17.0323C19.5261 17.0323 20.0681 17.4929 20.1262 18.0774Z" fill="#333333"/>
</svg>