<svg width="17" height="17" viewBox="0 0 17 17" fill="none" xmlns="http://www.w3.org/2000/svg">
<path fill-rule="evenodd" clip-rule="evenodd" d="M1.41666 8.50002C1.41666 4.588 4.58797 1.41669 8.49999 1.41669C9.62957 1.41669 10.6993 1.68161 11.6485 2.15336C11.9989 2.32745 12.1417 2.75258 11.9676 3.10291C11.7935 3.45324 11.3684 3.5961 11.0181 3.422C10.2603 3.04543 9.40595 2.83335 8.49999 2.83335C5.37037 2.83335 2.83332 5.37041 2.83332 8.50002C2.83332 11.6297 5.37037 14.1667 8.49999 14.1667C11.6296 14.1667 14.1667 11.6297 14.1667 8.50002C14.1667 8.28667 14.1549 8.0763 14.132 7.86953C14.089 7.48066 14.3695 7.1306 14.7583 7.08767C15.1471 7.04466 15.4971 7.32504 15.5401 7.71384C15.5687 7.97224 15.5833 8.23454 15.5833 8.50002C15.5833 12.412 12.412 15.5834 8.49999 15.5834C4.58797 15.5834 1.41666 12.412 1.41666 8.50002ZM15.3759 3.04082C15.6525 3.31744 15.6525 3.76593 15.3759 4.04256L9.00085 10.4175C8.72425 10.6942 8.27573 10.6942 7.99913 10.4175L5.87412 8.29255C5.5975 8.01595 5.5975 7.56743 5.87412 7.29082C6.15075 7.0142 6.59923 7.0142 6.87586 7.29082L8.49999 8.91496L14.3741 3.04082C14.6507 2.7642 15.0992 2.7642 15.3759 3.04082V3.04082Z" fill="#00B783"/>
</svg>