<svg width="45" height="28" viewBox="0 0 45 28" fill="none" xmlns="http://www.w3.org/2000/svg">
<path d="M45 24.5977V2.40835C45 1.08241 43.8337 0 42.401 0H2.59898C1.16633 0 0 1.08241 0 2.40835V24.5977C0 25.9236 1.16633 27.0061 2.59898 27.0061H42.401C43.8337 27.0061 45 25.9327 45 24.5977ZM2.25 24.5977V2.40835C2.25 2.32717 2.38776 2.20991 2.59898 2.20991H42.401C42.6214 2.20991 42.75 2.33619 42.75 2.40835V24.5977C42.75 24.6789 42.6122 24.7961 42.401 24.7961H2.59898C2.38776 24.7961 2.25 24.6789 2.25 24.5977Z" fill="#00B783"/>
<path d="M8.10969 9.02906C8.88571 9.02906 9.51479 8.41118 9.51479 7.64899C9.51479 6.8868 8.88571 6.26892 8.10969 6.26892C7.33368 6.26892 6.70459 6.8868 6.70459 7.64899C6.70459 8.41118 7.33368 9.02906 8.10969 9.02906Z" fill="#00B783"/>
<path d="M13.8675 9.02906C14.6435 9.02906 15.2726 8.41118 15.2726 7.64899C15.2726 6.8868 14.6435 6.26892 13.8675 6.26892C13.0915 6.26892 12.4624 6.8868 12.4624 7.64899C12.4624 8.41118 13.0915 9.02906 13.8675 9.02906Z" fill="#00B783"/>
<path d="M19.616 9.02906C20.3921 9.02906 21.0211 8.41118 21.0211 7.64899C21.0211 6.8868 20.3921 6.26892 19.616 6.26892C18.84 6.26892 18.2109 6.8868 18.2109 7.64899C18.2109 8.41118 18.84 9.02906 19.616 9.02906Z" fill="#00B783"/>
<path d="M25.3743 9.02906C26.1504 9.02906 26.7794 8.41118 26.7794 7.64899C26.7794 6.8868 26.1504 6.26892 25.3743 6.26892C24.5983 6.26892 23.9692 6.8868 23.9692 7.64899C23.9692 8.41118 24.5983 9.02906 25.3743 9.02906Z" fill="#00B783"/>
<path d="M31.1329 9.02906C31.9089 9.02906 32.538 8.41118 32.538 7.64899C32.538 6.8868 31.9089 6.26892 31.1329 6.26892C30.3569 6.26892 29.7278 6.8868 29.7278 7.64899C29.7278 8.41118 30.3569 9.02906 31.1329 9.02906Z" fill="#00B783"/>
<path d="M36.8909 9.02906C37.667 9.02906 38.296 8.41118 38.296 7.64899C38.296 6.8868 37.667 6.26892 36.8909 6.26892C36.1149 6.26892 35.4858 6.8868 35.4858 7.64899C35.4858 8.41118 36.1149 9.02906 36.8909 9.02906Z" fill="#00B783"/>
<path d="M10.993 14.8832C11.769 14.8832 12.3981 14.2653 12.3981 13.5031C12.3981 12.7409 11.769 12.123 10.993 12.123C10.217 12.123 9.58789 12.7409 9.58789 13.5031C9.58789 14.2653 10.217 14.8832 10.993 14.8832Z" fill="#00B783"/>
<path d="M16.742 14.8832C17.518 14.8832 18.1471 14.2653 18.1471 13.5031C18.1471 12.7409 17.518 12.123 16.742 12.123C15.966 12.123 15.3369 12.7409 15.3369 13.5031C15.3369 14.2653 15.966 14.8832 16.742 14.8832Z" fill="#00B783"/>
<path d="M22.4998 14.8832C23.2758 14.8832 23.9049 14.2653 23.9049 13.5031C23.9049 12.7409 23.2758 12.123 22.4998 12.123C21.7238 12.123 21.0947 12.7409 21.0947 13.5031C21.0947 14.2653 21.7238 14.8832 22.4998 14.8832Z" fill="#00B783"/>
<path d="M28.2496 14.8832C29.0256 14.8832 29.6547 14.2653 29.6547 13.5031C29.6547 12.7409 29.0256 12.123 28.2496 12.123C27.4736 12.123 26.8445 12.7409 26.8445 13.5031C26.8445 14.2653 27.4736 14.8832 28.2496 14.8832Z" fill="#00B783"/>
<path d="M34.0074 12.123C33.2268 12.123 32.6023 12.7454 32.6023 13.5031C32.6023 14.2698 33.236 14.8832 34.0074 14.8832C34.788 14.8832 35.4125 14.2608 35.4125 13.5031C35.4125 12.7364 34.788 12.123 34.0074 12.123Z" fill="#00B783"/>
<path d="M32.5381 18.2566H12.4626C11.8381 18.2566 11.333 18.7527 11.333 19.3661C11.333 19.9794 11.8381 20.4755 12.4626 20.4755H32.5381C33.1626 20.4755 33.6677 19.9794 33.6677 19.3661C33.6677 18.7527 33.1626 18.2566 32.5381 18.2566Z" fill="#00B783"/>
</svg>
