<svg width="34" height="34" viewBox="0 0 34 34" fill="none" xmlns="http://www.w3.org/2000/svg">
<path d="M5.1001 6.80001C5.1001 5.86113 5.86122 5.10001 6.8001 5.10001H27.2001C28.139 5.10001 28.9001 5.86113 28.9001 6.80001V10.2C28.9001 11.1389 28.139 11.9 27.2001 11.9H6.8001C5.86122 11.9 5.1001 11.1389 5.1001 10.2V6.80001Z" fill="#4896FF"/>
<path d="M5.1001 17C5.1001 16.0611 5.86122 15.3 6.8001 15.3H17.0001C17.939 15.3 18.7001 16.0611 18.7001 17V27.2C18.7001 28.1389 17.939 28.9 17.0001 28.9H6.8001C5.86122 28.9 5.1001 28.1389 5.1001 27.2V17Z" fill="#4896FF"/>
<path d="M23.8001 15.3C22.8612 15.3 22.1001 16.0611 22.1001 17V27.2C22.1001 28.1389 22.8612 28.9 23.8001 28.9H27.2001C28.139 28.9 28.9001 28.1389 28.9001 27.2V17C28.9001 16.0611 28.139 15.3 27.2001 15.3H23.8001Z" fill="#4896FF"/>
</svg>
