<svg width="35" height="35" viewBox="0 0 35 35" fill="none" xmlns="http://www.w3.org/2000/svg">
<g clip-path="url(#clip0_333_767)">
<path d="M20.425 21.4439C19.5543 22.0244 18.5428 22.3312 17.5 22.3312C16.4572 22.3312 15.4458 22.0244 14.575 21.4439L0.233037 11.8822C0.153467 11.8292 0.0759473 11.7739 0 11.717V27.3848C0 29.1811 1.45776 30.6067 3.22198 30.6067H31.7779C33.5743 30.6067 34.9999 29.149 34.9999 27.3848V11.7169C34.9238 11.7739 34.8462 11.8294 34.7664 11.8825L20.425 21.4439Z" fill="#00B783"/>
<path d="M1.37061 10.1758L15.7126 19.7375C16.2555 20.0995 16.8777 20.2805 17.4999 20.2805C18.1222 20.2805 18.7445 20.0994 19.2874 19.7375L33.6294 10.1758C34.4876 9.60402 35 8.64699 35 7.61408C35 5.83803 33.5551 4.39319 31.7791 4.39319H3.22089C1.44491 4.39326 0 5.8381 0 7.61579C0 8.64699 0.512422 9.60402 1.37061 10.1758Z" fill="#00B783"/>
</g>
<defs>
<clipPath id="clip0_333_767">
<rect width="35" height="35" fill="white"/>
</clipPath>
</defs>
</svg>
