<svg width="25" height="49" viewBox="0 0 25 49" fill="none" xmlns="http://www.w3.org/2000/svg">
<path d="M0.92522 37.6122C1.34159 43.5648 6.41877 48.3697 12.3942 48.4913C15.7391 48.5689 18.7786 47.2293 20.9568 45.0511C23.1349 42.8729 24.3951 39.9809 24.3968 36.738C24.3976 35.264 24.1262 33.8354 23.628 32.5431L13.5873 1.06085C13.2816 0.187936 12.057 0.188585 11.7504 1.06183L1.67626 32.5547C1.07449 34.1085 0.812786 35.8208 0.92522 37.6122ZM7.63819 36.7469C7.63893 35.3636 8.19519 34.1047 9.10277 33.1971C10.0103 32.2895 11.2692 31.7333 12.6639 31.7212C15.4305 31.7197 17.6858 33.9749 17.6843 36.7416C17.6835 38.1249 17.1273 39.3838 16.2084 40.3027C15.2894 41.2216 14.0419 41.7665 12.6586 41.7673C9.86925 41.7688 7.62538 39.5249 7.63819 36.7469Z" fill="#B9BEC7" fill-opacity="0.6"/>
</svg>
