<svg width="27" height="27" viewBox="0 0 27 27" fill="none" xmlns="http://www.w3.org/2000/svg">
<path d="M26.081 1.65703C25.9521 1.11743 25.3592 0.750277 24.8216 0.941121C24.8216 0.941121 1.53187 9.16096 1.52799 9.16387C1.17052 9.29659 0.907992 9.63759 0.888617 10.028C0.87118 10.4029 1.10271 10.7933 1.44468 10.9522L10.4657 15.1633C10.4657 15.1633 14.8609 10.7681 14.8686 10.7604C15.7405 9.8885 17.1326 11.237 16.2385 12.1302L11.8355 16.5332C11.8355 16.5332 16.0408 25.5445 16.0486 25.559C16.2201 25.8884 16.5552 26.0976 16.9234 26.1141C17.3235 26.1325 17.6935 25.8264 17.8369 25.4679C17.8369 25.4679 26.0519 2.19178 26.0567 2.17725C26.1178 2.00965 26.1216 1.8285 26.081 1.65703Z" fill="#7B68EE"/>
</svg>
