<svg width="16" height="16" viewBox="0 0 40 40" fill="none" xmlns="http://www.w3.org/2000/svg">
    <path
        d="M37.5 30V35C37.5 36.3787 36.3787 37.5 35 37.5H5C3.62125 37.5 2.5 36.3787 2.5 35V30C2.5 29.31 3.05875 28.75 3.75 28.75C4.44125 28.75 5 29.31 5 30V35H35V30C35 29.31 35.5588 28.75 36.25 28.75C36.9412 28.75 37.5 29.31 37.5 30Z"
        fill="#7B68EE" />
    <path
        d="M10.3663 13.3838C9.87757 12.895 9.87757 12.105 10.3663 11.6163L19.1151 2.86751C19.6038 2.37751 20.4026 2.38376 20.8851 2.86751L29.6338 11.6163C30.1226 12.105 30.1226 12.895 29.6338 13.3838C29.3901 13.6275 29.0701 13.75 28.7501 13.75C28.4301 13.75 28.1101 13.6275 27.8663 13.3838L21.2501 6.76751V28.75C21.2501 29.44 20.6913 30 20.0001 30C19.3088 30 18.7501 29.44 18.7501 28.75V6.76751L12.1338 13.3838C11.6451 13.8725 10.8551 13.8725 10.3663 13.3838Z"
        fill="#7B68EE" />
</svg>